<svg xmlns="http://www.w3.org/2000/svg" width="16" height="12" viewBox="0 0 16 12" fill="none">
  <path d="M8 2.19995C10.2091 2.19995 12.2954 3.0762 13.8388 4.61953C14.0317 4.81246 14.3483 4.81246 14.5412 4.61953C14.7341 4.4266 14.7341 4.11003 14.5412 3.9171C12.7954 2.17131 10.4772 1.19995 8 1.19995C5.52276 1.19995 3.20464 2.17131 1.45883 3.9171C1.2659 4.11003 1.2659 4.4266 1.45883 4.61953C1.65176 4.81246 1.96833 4.81246 2.16126 4.61953C3.70464 3.0762 5.79086 2.19995 8 2.19995Z" fill="#000" fill-opacity="0.4"/>
  <path d="M8 5.19995C9.38076 5.19995 10.6954 5.73767 11.6602 6.70249C11.8531 6.89542 12.1697 6.89542 12.3626 6.70249C12.5555 6.50956 12.5555 6.19299 12.3626 6.00006C11.1954 4.83299 9.63367 4.19995 8 4.19995C6.36633 4.19995 4.80464 4.83299 3.63757 6.00006C3.44464 6.19299 3.44464 6.50956 3.63757 6.70249C3.8305 6.89542 4.14707 6.89542 4.34 6.70249C5.30464 5.73767 6.61924 5.19995 8 5.19995Z" fill="#000" fill-opacity="0.4"/>
  <path d="M8 8.19995C8.55228 8.19995 9.07464 8.41066 9.48388 8.7699C9.67681 8.96283 9.99338 8.96283 10.1863 8.7699C10.3792 8.57697 10.3792 8.2604 10.1863 8.06747C9.57464 7.55924 8.80633 7.19995 8 7.19995C7.19367 7.19995 6.42536 7.55924 5.81369 8.06747C5.62076 8.2604 5.62076 8.57697 5.81369 8.7699C6.00662 8.96283 6.32319 8.96283 6.51612 8.7699C6.92536 8.41066 7.44772 8.19995 8 8.19995Z" fill="#000" fill-opacity="0.4"/>
  <circle cx="8" cy="10.7" r="1" fill="#000" fill-opacity="0.4"/>
</svg>